<svg width="50" height="50" viewBox="0 0 50 50" fill="none" xmlns="http://www.w3.org/2000/svg">
<g clip-path="url(#clip0_4719_25707)">
<path d="M14.8363 30.3337C14.8107 27.3027 17.7439 24.8169 20.5937 23.0675L20.7337 35.5694C18.4293 35.2691 14.8684 33.7647 14.8363 30.3337ZM42.0083 40.6798C40.3572 40.4581 38.8142 39.6996 37.4871 38.7288C36.7728 38.2068 36.1237 37.6053 35.5452 36.9422C37.7341 35.5577 40.1455 34.4543 42.7461 34.2644C44.3983 34.1106 47.1358 34.8108 46.8642 37.5406C46.5925 40.2703 43.4348 40.8804 42.0094 40.6798H42.0083ZM20.6557 13.2465C20.5872 10.0361 22.6949 7.63208 25.9906 7.58115C26.9306 7.56524 29.9868 7.58115 30.6904 10.1178C27.1263 11.6965 22.4126 14.6119 20.7017 15.6951H20.6535C20.6354 14.8188 20.6696 13.9435 20.6557 13.2475V13.2465ZM20.6739 19.6948C20.6739 19.6948 20.691 17.7522 20.6535 15.9412C22.4618 14.84 28.2074 11.4503 30.7588 10.3152C30.8946 10.5316 30.9812 11.4854 30.9406 12.2047C30.7 16.4335 22.4864 19.1229 20.6813 20.2305L20.6739 19.6958V19.6948ZM20.9209 28.1928L20.8385 22.9688C25.7137 20.0757 31.2796 19.3574 31.1641 12.1336C31.1566 11.6583 31.1288 11.2106 31.0807 10.7883C31.0679 10.6716 31.0315 10.3777 31.0144 10.2653C31.0219 10.2632 31.0304 10.2589 31.0379 10.2568C34.6608 8.78106 38.0966 7.99916 40.4738 10.8881C42.6798 13.5679 39.0451 18.1798 33.2108 20.3589C27.3776 22.5381 22.5997 23.4632 20.9219 28.1928H20.9209ZM45.4024 33.9653C43.0413 32.3537 39.7552 32.9733 37.1791 33.7202C36.1258 34.0363 35.1003 34.4554 34.123 34.9647C33.939 34.6527 31.5373 26.5791 25.7254 26.0253C25.6709 26.02 24.0551 25.7983 23.2285 26.0317C22.4019 26.264 22.0939 26.5239 22.0939 26.5239C22.0939 26.5239 23.6766 24.9697 27.1092 24.2207C42.1387 20.9414 43.8336 14.6246 42.1762 11.6456C40.0343 7.79864 35.5334 8.16042 30.9759 10.0584C30.3247 6.36427 28.1004 4.96704 25.9457 4.99993C22.4041 5.05615 20.3381 7.74559 20.3851 10.7204C20.4129 12.4465 20.4365 14.161 20.4621 15.8373C20.3787 15.8914 19.9767 16.1577 19.9724 16.1598C16.928 17.9453 13.2783 18.549 9.78156 18.2413C9.74306 17.2822 9.61153 16.3306 9.34634 15.3959C8.96993 14.1111 8.18076 12.8317 6.94781 12.1856C5.63572 11.4726 3.82426 11.6625 2.78165 12.8094C2.15716 13.4947 1.86523 14.4835 2.05878 15.3938C2.23629 16.2786 2.88003 17.0266 3.58687 17.5305C5.22937 18.671 7.25685 19.0784 9.21588 19.2312C9.34099 19.2386 9.52278 19.2407 9.64789 19.2449C9.64468 20.9329 9.42654 22.6664 9.06938 24.2939L9.1731 24.3162C9.47573 22.6611 9.75483 20.9552 9.79118 19.2566C13.4013 19.3627 17.3942 17.923 20.4429 16.0038C20.476 18.0705 20.4814 20.3557 20.4814 20.3557C17.4466 22.5126 14.6599 25.3177 14.5893 28.8898C14.461 35.4039 17.3653 38.1358 21.6544 38.0615C25.9938 37.9851 27.6716 34.1647 28.0598 32.098C28.0801 31.9856 27.2246 35.3774 21.1904 35.5683C21.1412 35.5694 21.0909 35.5704 21.0406 35.5683V35.5651L20.954 30.1226L20.9391 29.2102C20.9733 29.0861 21.0107 27.7122 22.0597 26.7881C23.1077 25.8651 24.5256 26.3563 24.9277 26.4804C24.9309 26.4826 24.9352 26.4826 24.9395 26.4847C24.9416 26.4847 24.9448 26.4868 24.9469 26.4879C24.9523 26.4879 24.9576 26.49 24.9619 26.4932L24.9715 26.4964L25.1041 26.5547L25.3127 26.6491L25.3169 26.6513C28.7666 28.2702 31.9158 35.6192 32.181 36.1953C31.841 36.4393 31.3181 36.7852 30.9973 37.0547C30.3514 37.5915 23.0916 42.6977 17.1226 43.0913C11.1525 43.486 6.33828 41.571 5.20264 36.9836C4.067 32.3962 7.16595 27.7727 11.9791 27.5827C12.8581 27.5477 13.7499 27.7536 14.5765 28.075L14.5979 28.0241C13.7755 27.6666 12.8752 27.4767 11.9748 27.4894C7.01838 27.6029 3.77293 32.5755 5.12244 37.2467C7.3456 44.9384 14.7294 45.9049 21.4267 44.4005C25.0592 43.5953 28.5239 42.0559 31.5373 39.8789C32.2559 39.3643 32.921 38.7681 33.6343 38.2472C33.6888 38.2079 33.7433 38.1676 33.7979 38.1283C35.2629 39.6359 37.0936 40.7859 39.1328 41.3493C41.372 41.954 44.148 41.9031 45.8536 40.1441C46.6631 39.2964 47.0064 38.1209 47 36.9783C47.0214 35.7678 46.4225 34.6602 45.4034 33.9642L45.4024 33.9653ZM9.31212 18.1936C7.89631 18.0291 4.04989 17.3947 3.16448 14.9334C2.27906 12.472 4.67118 11.4567 6.3725 12.0614C8.07382 12.6662 9.5463 14.822 9.64789 18.218C9.56662 18.2105 9.39232 18.2021 9.31212 18.1925V18.1936Z" fill="white"/>
</g>
<defs>
<clipPath id="clip0_4719_25707">
<rect width="45" height="40" fill="white" transform="translate(2 5)"/>
</clipPath>
</defs>
</svg>
